<svg xmlns="http://www.w3.org/2000/svg" xmlns:xlink="http://www.w3.org/1999/xlink" xmlns:serif="http://www.serif.com/" width="100%" height="100%" viewBox="0 0 1182 1182" version="1.1" xml:space="preserve" style="fill-rule:evenodd;clip-rule:evenodd;stroke-linejoin:round;stroke-miterlimit:2;">
    <path d="M590.551,-0.106C342.845,-0.106 142.097,200.641 142.097,448.348C142.097,595.093 217.231,696.054 301.756,807.581L585.855,1180.9C591.725,1186.77 684.468,1062.33 692.686,1051.77C729.079,1005.98 764.298,960.196 799.517,913.237C840.605,858.061 887.564,802.885 927.479,745.361C989.699,656.139 1039.01,562.222 1039.01,448.348C1039.01,200.641 838.258,-0.106 590.551,-0.106ZM604.565,414.298L604.565,124.114L339.759,546.69L576.537,546.69L576.537,836.874L841.343,414.298L604.565,414.298Z" style="fill:white;"/>
</svg>