<svg xmlns="http://www.w3.org/2000/svg" xmlns:xlink="http://www.w3.org/1999/xlink" xmlns:serif="http://www.serif.com/" width="100%" height="100%" viewBox="0 0 1182 1182" version="1.1" xml:space="preserve" style="fill-rule:evenodd;clip-rule:evenodd;stroke-linejoin:round;stroke-miterlimit:2;">
    <path d="M590.542,1181.1C77.611,929.361 83.904,675.517 83.904,104.897C255.939,119.568 422.456,119.568 590.542,0C758.628,119.568 925.163,119.568 1097.2,104.897C1097.2,675.517 1103.49,929.361 590.542,1181.1ZM590.543,1060.22C437.631,979.813 341.358,899.906 283.141,802.543C194.917,654.994 191.078,474.049 191.498,218.918C325.931,221.608 457.838,203.502 590.542,127.823C723.249,203.502 855.167,221.608 989.605,218.918C990.024,474.049 986.185,654.992 897.958,802.541C839.739,899.905 743.462,979.813 590.543,1060.22L590.543,1060.22ZM590.543,1003.1C461.377,932.472 377.577,862.408 326.338,776.714C248.008,645.711 241.933,486.739 241.788,269.222C358.937,266.648 474.479,245.627 590.543,185.145C706.609,245.627 822.161,266.649 939.315,269.222C939.17,486.738 933.094,645.71 854.761,776.712C803.52,862.406 719.717,932.471 590.543,1003.1Z" style="fill:white;"/>
</svg>