<svg xmlns="http://www.w3.org/2000/svg" xmlns:xlink="http://www.w3.org/1999/xlink" xmlns:serif="http://www.serif.com/" width="100%" height="100%" viewBox="0 0 1182 1182" version="1.1" xml:space="preserve" style="fill-rule:evenodd;clip-rule:evenodd;stroke-linejoin:round;stroke-miterlimit:2;">
    <g transform="matrix(18.3085,0,0,18.3085,22.9889,0)">
        <path d="M12,46C12.068,46 12.136,45.997 12.205,45.99C12.205,45.99 20.172,45.166 26,44.579L26,48C26,48.839 26.336,49.663 27.058,50.359C27.991,51.259 29.832,52 32,52C32.379,52 60.144,49.995 60.144,49.995C61.19,49.919 62,49.049 62,48L62,12C62,11.445 61.769,10.915 61.363,10.536C60.957,10.158 60.411,9.966 59.858,10.005L38,11.566L38,8.001C38,7.162 37.664,6.338 36.942,5.642C36.009,4.741 34.168,4 32,4C31.552,4 18.379,5.34 13.549,5.832C13.837,5.285 14,4.663 14,4C14,1.791 12.209,0 10,0C7.791,0 6,1.791 6,4C6,5.477 6.81,6.752 8,7.445L8,59.999L2,59.999C0.895,59.999 0,60.895 0,62C0,63.105 0.895,64 2,64L18,64C19.104,64 20,63.104 20,62C20,60.896 19.104,59.999 18,59.999L12,59.999L12,46ZM38,13.571L38,44L37.986,44L38,44.221C37.982,45.747 35.655,46.985 32.775,47.004L32.638,47.005C30.687,47.018 28.991,47.59 28.093,48.432C28.488,49.329 30.087,50 32,50C32.377,50 60,48 60,48L60,12L38,13.571ZM36,42.39L36,8.001C36,6.895 34.209,6 32,6C31.457,6 12,8.001 12,8.001L12,44C12,44 21.501,43.025 27.41,42.437L27.41,42.435C27.88,42.386 28.33,42.342 28.755,42.303C30.597,42.121 31.867,42.001 32,42C32.561,41.997 33.043,42.013 33.458,42.047C34.412,42.083 35.283,42.194 36,42.39Z" style="fill:white;"/>
    </g>
</svg>