<svg xmlns="http://www.w3.org/2000/svg" xmlns:xlink="http://www.w3.org/1999/xlink" xmlns:serif="http://www.serif.com/" width="100%" height="100%" viewBox="0 0 36 36" version="1.1" xml:space="preserve" style="fill-rule:evenodd;clip-rule:evenodd;stroke-linejoin:round;stroke-miterlimit:2;">
    <path d="M9.084,36L3.459,36L3.459,27.332C3.459,26.585 4.074,25.971 4.821,25.971L9.084,25.971L9.084,36ZM32.524,26.599C32.524,25.852 31.909,25.238 31.162,25.238L26.916,25.238L26.916,36L32.541,36L32.524,26.599ZM13.5,13.438L7,11L15,8L18,0L21,8L29,11L22.5,13.438L22.5,16.254L23.923,16.254C24.318,16.254 24.643,16.579 24.643,16.974L24.643,36L20.908,36L20.908,30.257L15.092,30.257L15.092,36L11.334,36L11.334,16.974C11.334,16.579 11.659,16.254 12.054,16.254L13.5,16.254L13.5,13.438ZM14.867,26.685L21.133,26.685C21.554,26.685 21.901,26.341 21.904,25.92L21.904,24.643C21.904,24.22 21.556,23.873 21.133,23.873L14.867,23.873C14.444,23.873 14.096,24.22 14.096,24.643L14.096,25.92C14.099,26.341 14.446,26.685 14.867,26.685ZM22.5,13.438L22.5,12.969C22.501,12.584 22.198,12.262 21.814,12.238L14.231,12.238C13.83,12.238 13.5,12.568 13.5,12.969L13.5,13.438L15,14L18,22L21,14L22.5,13.438Z" style="fill:white;fill-rule:nonzero;"/>
</svg>