<svg xmlns="http://www.w3.org/2000/svg" xmlns:xlink="http://www.w3.org/1999/xlink" xmlns:serif="http://www.serif.com/" width="100%" height="100%" viewBox="0 0 512 512" version="1.1" xml:space="preserve" style="fill-rule:evenodd;clip-rule:evenodd;stroke-linejoin:round;stroke-miterlimit:2;">
    <g transform="matrix(0,-509.141,-509.141,0,256,502.925)">
        <path d="M0.988,-0C0.988,0.211 0.817,0.382 0.606,0.382C0.481,0.382 0.395,0.318 0.3,0.246L-0.018,0.004C-0.023,-0.001 0.083,-0.08 0.092,-0.087C0.131,-0.118 0.17,-0.148 0.21,-0.178C0.257,-0.213 0.304,-0.253 0.353,-0.287C0.429,-0.34 0.509,-0.382 0.606,-0.382C0.817,-0.382 0.988,-0.211 0.988,-0ZM0.615,0.175C0.712,0.175 0.79,0.097 0.79,-0C0.79,-0.097 0.712,-0.176 0.615,-0.176C0.519,-0.176 0.441,-0.097 0.441,-0C0.441,0.097 0.519,0.175 0.615,0.175Z" style="fill:white;fill-rule:nonzero;"/>
    </g>
</svg>