<svg xmlns="http://www.w3.org/2000/svg" xmlns:xlink="http://www.w3.org/1999/xlink" xmlns:serif="http://www.serif.com/" width="100%" height="100%" viewBox="0 0 1182 1182" version="1.1" xml:space="preserve" style="fill-rule:evenodd;clip-rule:evenodd;stroke-linejoin:round;stroke-miterlimit:2;">
    <path d="M590.551,-0.106C342.845,-0.106 142.097,200.641 142.097,448.348C142.097,595.093 217.231,696.054 301.756,807.581L585.855,1180.9C591.725,1186.77 684.468,1062.33 692.686,1051.77C729.079,1005.98 764.298,960.196 799.517,913.237C840.605,858.061 887.564,802.885 927.479,745.361C989.699,656.139 1039.01,562.222 1039.01,448.348C1039.01,200.641 838.258,-0.106 590.551,-0.106ZM590.551,99.785C407.46,99.785 259.969,247.276 259.969,425.282L259.969,570.229C259.969,618.545 298.113,656.689 346.429,656.689C361.687,656.689 387.116,664.318 387.116,684.661L387.116,760.949C387.116,771.121 394.745,781.293 404.917,786.379C465.947,806.722 529.521,816.894 590.551,816.894C651.582,816.894 715.155,806.722 776.186,786.379C786.357,783.836 793.986,773.664 793.986,760.949L793.986,684.661C793.986,664.318 819.416,656.689 834.673,656.689C882.989,656.689 921.133,618.545 921.133,570.229L921.133,425.282C921.133,247.276 773.643,99.785 590.551,99.785ZM626.152,656.689C623.609,659.232 621.066,659.232 615.981,659.232C605.809,659.232 598.18,654.146 593.094,643.974L590.551,638.888L588.008,643.974C582.922,656.689 567.665,661.775 554.95,654.146C542.235,649.06 537.149,633.802 544.778,621.088L570.208,570.229C577.836,552.428 605.809,552.428 615.981,570.229L641.41,621.088C643.953,633.802 638.867,649.06 626.152,656.689ZM819.416,521.913C819.416,547.343 806.701,572.772 788.9,588.03C773.643,600.744 753.299,608.373 732.956,608.373C727.87,608.373 722.784,608.373 715.155,605.83L684.64,600.744C651.582,593.115 626.152,570.229 618.524,537.171C610.895,511.741 618.524,483.769 633.781,463.426C649.039,443.082 674.468,430.367 702.44,430.367L732.956,430.367C781.272,430.367 819.416,468.511 819.416,516.827L819.416,521.913ZM496.462,600.744L465.947,605.83C460.861,605.83 455.775,608.373 448.147,608.373C427.803,608.373 410.003,600.744 392.202,588.03C374.401,572.772 361.687,547.343 361.687,521.913L361.687,516.827C361.687,468.511 399.831,430.367 448.147,430.367L478.662,430.367C506.634,430.367 529.521,443.082 547.321,463.426C562.579,483.769 570.208,511.741 562.579,537.171C554.95,570.229 526.978,593.115 496.462,600.744Z" style="fill:white;"/>
</svg>